<?xml version="1.0" standalone="no"?>
<!DOCTYPE svg PUBLIC "-//W3C//DTD SVG 20010904//EN"
 "http://www.w3.org/TR/2001/REC-SVG-20010904/DTD/svg10.dtd">
<svg version="1.0" xmlns="http://www.w3.org/2000/svg"
 width="345.000000pt" height="345.000000pt" viewBox="0 0 345.000000 345.000000"
 preserveAspectRatio="xMidYMid meet">
<metadata>
Created by potrace 1.11, written by Peter Selinger 2001-2013
</metadata>
<g transform="translate(0.000000,345.000000) scale(0.100000,-0.100000)"
fill="#000000" stroke="none">
<path d="M810 3373 c-395 -65 -672 -361 -711 -756 -7 -74 -9 -398 -7 -957 l4
-845 23 -85 c70 -257 228 -447 462 -554 163 -74 102 -70 1104 -74 631 -2 922
0 975 8 196 29 351 110 485 252 85 90 146 190 188 312 l32 91 3 930 c3 687 0
948 -8 1000 -45 260 -209 479 -445 594 -101 49 -142 62 -249 81 -57 10 -1798
13 -1856 3z m35 -44 c-4 -5 -13 -9 -20 -9 -26 0 -206 -61 -281 -95 -81 -37
-102 -36 -46 3 62 43 144 79 217 96 111 25 143 26 130 5z m605 -784 c16 -8 34
-24 40 -34 14 -27 13 -466 -1 -493 -22 -40 -66 -48 -277 -48 -111 0 -212 5
-229 10 -58 21 -63 44 -63 290 0 132 4 229 10 240 24 44 53 49 278 50 171 0
219 -3 242 -15z m440 0 c10 -12 10 -18 0 -30 -10 -12 -37 -15 -121 -15 -126 0
-139 -7 -139 -76 0 -49 -18 -66 -46 -43 -22 18 -14 111 12 140 29 33 50 38
170 38 88 1 114 -2 124 -14z m610 0 c16 -8 34 -24 40 -34 14 -27 13 -453 -1
-484 -22 -48 -46 -52 -279 -52 -233 0 -257 4 -279 52 -14 31 -15 457 -1 483
24 44 53 49 278 50 171 0 219 -3 242 -15z m-609 -136 c13 -22 -10 -39 -54 -39
-46 0 -77 -22 -77 -55 0 -27 -43 -75 -67 -75 -38 0 -62 -28 -65 -78 -2 -36 -7
-48 -22 -50 -25 -5 -36 14 -36 63 0 51 31 103 67 111 45 10 73 32 73 58 0 52
60 87 139 81 18 -1 37 -9 42 -16z m3 -264 c11 -29 -22 -45 -93 -45 -72 0 -99
14 -87 45 8 22 171 22 180 0z m-136 -182 c3 -53 0 -65 -22 -89 -24 -28 -26
-29 -147 -33 -109 -3 -124 -1 -136 15 -25 34 1 44 118 44 126 0 139 7 139 74
0 47 6 58 30 54 11 -2 16 -19 18 -65z m-697 -73 c34 -19 49 -64 49 -148 0 -47
5 -83 12 -90 7 -7 31 -12 54 -12 49 0 74 -21 54 -45 -15 -18 -91 -20 -123 -4
-47 24 -57 48 -57 146 0 56 -4 94 -11 99 -6 3 -30 6 -54 6 -46 -1 -71 17 -61
43 6 18 106 21 137 5z m309 -55 l5 -60 60 -5 c56 -5 60 -7 60 -30 l0 -25 -146
-3 c-153 -3 -178 4 -163 42 5 12 20 16 65 16 l59 0 0 49 c0 65 8 83 34 79 18
-3 22 -11 26 -63z m740 55 c34 -18 45 -52 50 -150 l5 -95 52 -3 c58 -3 84 -22
63 -47 -16 -20 -92 -20 -131 0 -39 21 -49 50 -49 143 0 42 -4 83 -9 91 -6 10
-36 13 -116 13 -60 0 -114 2 -122 5 -14 5 -18 35 -6 46 10 11 243 8 263 -3z
m411 -19 c45 -46 35 -117 -20 -146 -39 -20 -115 -20 -131 0 -20 24 5 45 54 45
45 0 66 13 66 42 0 28 -37 36 -135 32 -97 -5 -134 7 -122 40 5 14 25 16 132
16 126 0 127 0 156 -29z m-792 -127 c26 -21 31 -33 31 -69 0 -36 -5 -48 -31
-69 -30 -26 -34 -27 -153 -24 l-121 3 0 25 c0 25 0 25 119 30 96 4 121 8 129
22 18 28 -9 48 -63 48 -55 0 -81 20 -60 45 8 10 31 15 65 15 43 0 60 -5 84
-26z m291 11 c21 -25 -5 -45 -61 -45 -26 0 -51 -5 -54 -10 -4 -6 -8 -31 -10
-56 -3 -52 -14 -68 -38 -58 -13 5 -17 19 -17 66 0 52 3 63 29 89 25 25 37 29
84 29 36 0 59 -5 67 -15z m-2 -127 c19 -19 17 -282 -3 -298 -28 -23 -44 -4
-47 57 l-3 58 -125 5 c-120 5 -125 6 -128 27 -4 28 12 32 148 36 l105 2 3 50
c4 66 23 90 50 63z m516 6 c12 -5 16 -20 16 -63 0 -67 -26 -105 -79 -118 -38
-10 -57 -32 -48 -57 5 -12 19 -16 55 -16 52 0 79 -18 68 -45 -6 -17 -89 -21
-130 -5 -27 10 -56 56 -56 89 0 31 46 78 88 88 36 8 37 11 43 60 6 47 15 73
24 73 2 0 10 -3 19 -6z m-1058 -159 c24 -30 24 -32 24 -261 l0 -230 -31 -30
-30 -29 -210 -3 c-227 -4 -254 0 -289 46 -19 23 -20 41 -20 249 0 134 4 232
10 243 25 46 51 50 293 47 l229 -2 24 -30z m672 23 c14 -14 16 -146 3 -166 -5
-8 -17 -12 -27 -10 -16 3 -19 14 -22 82 -3 92 13 127 46 94z m132 -3 c8 -10
11 -51 8 -135 -3 -119 -4 -122 -31 -146 -26 -23 -35 -24 -153 -24 -102 0 -126
3 -130 15 -4 8 -1 22 6 30 10 12 36 15 121 14 59 0 113 2 118 6 7 4 11 50 11
119 0 74 4 116 12 124 16 16 23 15 38 -3z m-650 -175 c0 -50 9 -63 51 -73 14
-4 38 -16 52 -28 27 -20 27 -22 27 -148 0 -131 -9 -163 -37 -140 -9 8 -13 42
-13 117 0 114 -11 142 -55 142 -60 0 -112 131 -70 174 27 26 45 9 45 -44z
m264 32 c9 -29 0 -142 -12 -154 -6 -6 -18 -8 -26 -5 -13 5 -16 23 -16 91 0 58
4 86 13 89 18 6 36 -3 41 -21z m628 -141 c27 -31 28 -34 28 -151 0 -107 -2
-120 -19 -129 -27 -15 -32 5 -33 121 -1 122 -10 138 -77 138 -37 0 -50 4 -55
17 -11 28 22 45 78 40 40 -4 55 -11 78 -36z m-894 -189 c2 -70 0 -83 -14 -89
-26 -10 -41 21 -42 85 -1 77 5 94 31 90 20 -3 22 -10 25 -86z m395 76 c10 -31
-5 -38 -88 -38 -84 0 -102 7 -91 35 7 20 172 22 179 3z m131 -4 c3 -9 6 -38 6
-65 l0 -49 89 0 c60 0 92 4 99 13 6 7 12 35 14 62 3 46 5 50 28 50 23 0 25 -4
28 -52 3 -59 -7 -85 -44 -110 -22 -14 -59 -16 -270 -16 -248 0 -274 4 -261 37
5 12 30 16 129 18 l123 3 3 50 c1 28 5 56 7 63 6 17 42 15 49 -4z m836 -824
c-84 -71 -246 -131 -345 -129 l-50 1 65 20 c100 30 279 98 314 118 47 28 55
23 16 -10z"/>
<path d="M992 2488 c-17 -17 -17 -429 0 -446 15 -15 400 -17 429 -2 18 10 19
23 19 223 0 152 -3 216 -12 225 -17 17 -419 17 -436 0z m359 -68 c17 -10 19
-23 19 -155 0 -127 -2 -145 -17 -153 -24 -13 -262 -13 -285 -1 -16 9 -18 25
-18 155 0 141 1 145 23 154 31 12 254 12 278 0z"/>
<path d="M2043 2493 c-18 -7 -19 -433 -1 -451 17 -17 419 -17 436 0 17 17 17
429 0 446 -9 9 -70 12 -217 11 -114 0 -212 -3 -218 -6z m363 -77 c11 -4 14
-35 14 -150 0 -80 -4 -147 -9 -150 -14 -9 -285 -11 -299 -2 -19 11 -17 292 2
303 16 9 269 8 292 -1z"/>
<path d="M992 1438 c-9 -9 -12 -73 -12 -225 0 -200 1 -213 19 -223 30 -16 403
-13 425 3 16 12 17 33 16 227 0 157 -4 216 -13 222 -21 13 -421 10 -435 -4z
m367 -72 c8 -9 11 -60 9 -157 l-3 -144 -155 0 -155 0 -3 149 c-2 113 1 151 10
158 7 4 74 8 149 8 104 0 139 -3 148 -14z"/>
</g>
</svg>
